<svg width="83" height="24" viewBox="0 0 83 24" fill="none" xmlns="http://www.w3.org/2000/svg">
<path opacity="0.7" d="M6.85 18L0.625 0.374999H3.975L8.775 14.825H7.775L12.95 0.374999H15.35L20.15 14.825H19.225L24.25 0.374999H27.4L21.125 18H18.45L13.8 4.45H14.35L9.525 18H6.85ZM33.5131 18.25C32.4131 18.25 31.4464 17.9917 30.6131 17.475C29.7798 16.9417 29.1298 16.1833 28.6631 15.2C28.1964 14.2167 27.9631 13.0417 27.9631 11.675C27.9631 10.3083 28.1964 9.14167 28.6631 8.175C29.1298 7.19167 29.7798 6.44167 30.6131 5.925C31.4464 5.39167 32.4131 5.125 33.5131 5.125C34.5798 5.125 35.5131 5.39167 36.3131 5.925C37.1298 6.44167 37.6714 7.14167 37.9381 8.025H37.6631L37.9381 5.375H40.9381C40.8881 5.89167 40.8381 6.41667 40.7881 6.95C40.7548 7.48333 40.7381 8.00833 40.7381 8.525V18H37.6381L37.6131 15.4H37.9131C37.6464 16.2667 37.1048 16.9583 36.2881 17.475C35.4714 17.9917 34.5464 18.25 33.5131 18.25ZM34.3881 15.85C35.3714 15.85 36.1631 15.5083 36.7631 14.825C37.3631 14.125 37.6631 13.075 37.6631 11.675C37.6631 10.275 37.3631 9.23333 36.7631 8.55C36.1631 7.86667 35.3714 7.525 34.3881 7.525C33.4048 7.525 32.6131 7.86667 32.0131 8.55C31.4131 9.23333 31.1131 10.275 31.1131 11.675C31.1131 13.075 31.4048 14.125 31.9881 14.825C32.5881 15.5083 33.3881 15.85 34.3881 15.85ZM50.391 23.6C49.2243 23.6 48.166 23.475 47.216 23.225C46.2827 22.975 45.4493 22.5917 44.716 22.075L45.391 19.825C45.8743 20.1417 46.3743 20.4 46.891 20.6C47.4077 20.8 47.941 20.95 48.491 21.05C49.041 21.15 49.5993 21.2 50.166 21.2C51.3327 21.2 52.1993 20.9083 52.766 20.325C53.3493 19.7583 53.641 18.9417 53.641 17.875V14.85H53.891C53.6243 15.7167 53.0827 16.4083 52.266 16.925C51.466 17.4417 50.541 17.7 49.491 17.7C48.3577 17.7 47.366 17.45 46.516 16.95C45.6827 16.4333 45.0327 15.7 44.566 14.75C44.0993 13.8 43.866 12.6833 43.866 11.4C43.866 10.1167 44.0993 9.00833 44.566 8.075C45.0327 7.125 45.6827 6.4 46.516 5.9C47.366 5.38333 48.3577 5.125 49.491 5.125C50.5577 5.125 51.4827 5.38333 52.266 5.9C53.066 6.4 53.5993 7.08333 53.866 7.95L53.641 7.8L53.891 5.375H56.916C56.8493 5.89167 56.7993 6.41667 56.766 6.95C56.7327 7.48333 56.716 8.00833 56.716 8.525V17.5C56.716 19.4833 56.1743 20.9917 55.091 22.025C54.0243 23.075 52.4577 23.6 50.391 23.6ZM50.341 15.3C51.341 15.3 52.1327 14.9667 52.716 14.3C53.316 13.6167 53.616 12.65 53.616 11.4C53.616 10.15 53.316 9.19167 52.716 8.525C52.1327 7.85833 51.341 7.525 50.341 7.525C49.3243 7.525 48.516 7.85833 47.916 8.525C47.316 9.19167 47.016 10.15 47.016 11.4C47.016 12.65 47.316 13.6167 47.916 14.3C48.516 14.9667 49.3243 15.3 50.341 15.3ZM66.5928 18.25C64.4761 18.25 62.8178 17.6667 61.6178 16.5C60.4178 15.3333 59.8178 13.7333 59.8178 11.7C59.8178 10.3833 60.0761 9.23333 60.5928 8.25C61.1094 7.26667 61.8261 6.5 62.7428 5.95C63.6761 5.4 64.7594 5.125 65.9928 5.125C67.2094 5.125 68.2261 5.38333 69.0428 5.9C69.8594 6.41667 70.4761 7.14167 70.8928 8.075C71.3261 9.00833 71.5428 10.1 71.5428 11.35V12.175H62.3428V10.525H69.3178L68.8928 10.875C68.8928 9.70833 68.6428 8.81667 68.1428 8.2C67.6594 7.58333 66.9511 7.275 66.0178 7.275C64.9844 7.275 64.1844 7.64167 63.6178 8.375C63.0678 9.10833 62.7928 10.1333 62.7928 11.45V11.775C62.7928 13.1417 63.1261 14.1667 63.7928 14.85C64.4761 15.5167 65.4344 15.85 66.6678 15.85C67.3844 15.85 68.0511 15.7583 68.6678 15.575C69.3011 15.375 69.9011 15.0583 70.4678 14.625L71.3928 16.725C70.7928 17.2083 70.0761 17.5833 69.2428 17.85C68.4094 18.1167 67.5261 18.25 66.5928 18.25ZM74.5641 18V8.6C74.5641 8.06667 74.5474 7.525 74.5141 6.975C74.4974 6.425 74.4557 5.89167 74.3891 5.375H77.4141L77.7641 8.825H77.2641C77.4307 7.99167 77.7057 7.3 78.0891 6.75C78.4891 6.2 78.9724 5.79167 79.5391 5.525C80.1057 5.25833 80.7224 5.125 81.3891 5.125C81.6891 5.125 81.9307 5.14167 82.1141 5.175C82.2974 5.19167 82.4807 5.23333 82.6641 5.3L82.6391 8.05C82.3224 7.91667 82.0474 7.83333 81.8141 7.8C81.5974 7.76667 81.3224 7.75 80.9891 7.75C80.2724 7.75 79.6641 7.9 79.1641 8.2C78.6807 8.5 78.3141 8.91667 78.0641 9.45C77.8307 9.98333 77.7141 10.5917 77.7141 11.275V18H74.5641Z" fill="white"/>
</svg>
