<svg width="410" height="449" viewBox="0 0 410 449" fill="none" xmlns="http://www.w3.org/2000/svg">
<g clip-path="url(#clip0_4_160)">
<path d="M29.6369 57.893C46.0049 57.893 59.2738 44.9332 59.2738 28.9465C59.2738 12.9598 46.0049 0 29.6369 0C13.2689 0 0 12.9598 0 28.9465C0 44.9332 13.2689 57.893 29.6369 57.893Z" fill="#F2F2F2"/>
<path d="M21.4984 18.0848C23.8093 18.0848 25.6827 16.2551 25.6827 13.9981C25.6827 11.741 23.8093 9.91132 21.4984 9.91132C19.1876 9.91132 17.3142 11.741 17.3142 13.9981C17.3142 16.2551 19.1876 18.0848 21.4984 18.0848Z" fill="#2F2E41"/>
<path d="M28.1933 33.6145C34.0476 33.6145 38.7934 28.9793 38.7934 23.2614C38.7934 17.5435 34.0476 12.9083 28.1933 12.9083C22.3391 12.9083 17.5933 17.5435 17.5933 23.2614C17.5933 28.9793 22.3391 33.6145 28.1933 33.6145Z" fill="#2F2E41"/>
<path d="M29.0704 33.6119C33.8276 33.6119 37.6841 29.8453 37.6841 25.1988C37.6841 20.5524 33.8276 16.7858 29.0704 16.7858C24.3132 16.7858 20.4567 20.5524 20.4567 25.1988C20.4567 29.8453 24.3132 33.6119 29.0704 33.6119Z" fill="#9E616A"/>
<path d="M34.92 16.6229C33.4106 15.7241 31.6817 15.238 29.9141 15.2152C28.1465 15.1924 26.405 15.6339 24.8719 16.4935C23.3388 17.353 22.0702 18.5991 21.1989 20.1014C20.3276 21.6037 19.8856 23.3071 19.919 25.0334C24.3081 26.1097 28.9192 26.9334 33.5999 25.2908L34.7053 22.6485L35.357 25.2928C36.7824 25.8618 38.2115 26.3433 39.6407 25.2873C39.699 23.5659 39.2937 21.8597 38.4653 20.3392C37.6369 18.8187 36.4144 17.5372 34.92 16.6229Z" fill="#2F2E41"/>
<path d="M17.6027 2.90407C16.1337 2.29165 14.5185 2.09297 12.9398 2.3305C11.3611 2.56802 9.88204 3.23228 8.66979 4.24813C7.48424 5.29295 6.58172 6.60799 6.04268 8.07608C5.50365 9.54416 5.34481 11.1197 5.58035 12.6623C6.05481 15.7997 8.00773 18.5015 9.8078 21.1411C11.6079 23.7807 13.3665 26.6731 13.3645 29.8446C13.3631 32.1289 12.4342 34.3194 10.7816 35.9357C9.12896 37.5521 6.88748 38.4623 4.54871 38.4669C7.29363 39.6211 10.1586 40.7979 13.1438 40.661C16.1291 40.5242 19.258 38.6498 19.7449 35.77C20.0958 33.6949 19.0534 31.6715 18.1841 29.7473C16.7681 26.612 15.7446 23.3212 15.1358 19.9464C14.7405 18.3493 14.7605 16.681 15.194 15.0934C15.6222 13.9457 16.4166 12.9626 17.4602 12.2893C18.5038 11.616 19.7413 11.288 20.9902 11.3538L21.9765 10.4871C22.1455 8.93583 21.815 7.37172 21.031 6.01255C20.247 4.65337 19.0487 3.56678 17.6027 2.90407Z" fill="#2F2E41"/>
<path d="M51.9363 48.3139C46.8018 54.0201 39.5758 57.5253 31.8182 58.0729C24.0606 58.6205 16.3936 56.1665 10.4724 51.2407L13.0144 44.3129C13.5889 43.0824 14.4954 42.0278 15.6368 41.2623C16.7783 40.4968 18.1115 40.0491 19.4936 39.9673L21.1107 39.8704L24.9669 36.622C24.9669 36.622 35.3571 36.2597 35.2029 36.0862L41.4966 39.7836L41.4913 39.7581L43.9654 39.9061C45.3476 39.9875 46.681 40.435 47.8225 41.2006C48.964 41.9662 49.8704 43.0209 50.4446 44.2516L51.9363 48.3139Z" fill="#006233"/>
<path d="M59.2738 144.281C59.2634 150.006 57.5151 155.6 54.2499 160.354C50.9847 165.109 46.3493 168.811 40.9299 170.992C35.5105 173.174 29.5505 173.737 23.8035 172.61C18.0566 171.483 12.7808 168.717 8.64335 164.662C4.50591 160.606 1.69262 155.444 0.559272 149.827C-0.57408 144.21 0.0233996 138.39 2.27614 133.105C4.52889 127.82 8.33574 123.305 13.2153 120.133C18.0948 116.961 23.8279 115.273 29.6895 115.283C33.5843 115.28 37.4414 116.029 41.039 117.486C44.6366 118.944 47.9039 121.081 50.6531 123.776C53.4022 126.47 55.5791 129.669 57.0585 133.188C58.538 136.707 59.2908 140.477 59.2738 144.281Z" fill="#F2F2F2"/>
<path d="M15.9005 134.813C17.126 130.999 19.9127 127.5 23.7668 126.211C27.621 124.921 33.2647 126.886 36.1622 129.706C41.4624 134.865 42.7558 152.589 39.1144 158.19C38.3901 158.152 35.8908 158.125 35.1578 158.098L34.1207 154.722V158.065C32.9529 158.029 31.7758 158.005 30.5897 157.992C26.6127 157.943 22.8098 156.391 19.9803 153.661C17.1509 150.931 15.5153 147.236 15.4175 143.353C15.3226 139.637 15.4176 136.317 15.9005 134.813Z" fill="#2F2E41"/>
<path d="M29.1973 147.456C33.8621 147.456 37.6436 143.762 37.6436 139.206C37.6436 134.65 33.8621 130.957 29.1973 130.957C24.5325 130.957 20.751 134.65 20.751 139.206C20.751 143.762 24.5325 147.456 29.1973 147.456Z" fill="#FFB6B6"/>
<path d="M21.908 131.961L31.6331 127.205C33.6213 128.08 35.3337 129.459 36.5925 131.198C37.8514 132.937 38.6109 134.974 38.7924 137.096L39.0348 139.932L34.9624 138.92L34.5162 135.294L33.8247 138.637L31.9453 138.17L31.9632 132.54L30.0826 138.166L23.3702 136.66L21.908 131.961Z" fill="#2F2E41"/>
<path d="M51.6295 163.385C46.495 169.092 39.269 172.597 31.5113 173.144C23.7537 173.692 16.0867 171.238 10.1655 166.312L12.7075 159.384C13.282 158.154 14.1885 157.099 15.3299 156.334C16.4714 155.568 17.8046 155.121 19.1867 155.039L20.8039 154.942L24.66 151.693C24.66 151.693 35.0502 151.331 34.896 151.158L41.1897 154.855L41.1845 154.83L43.6585 154.978C45.0407 155.059 46.3741 155.506 47.5156 156.272C48.6571 157.038 49.5636 158.092 50.1377 159.323L51.6295 163.385Z" fill="#006233"/>
<path d="M29.6369 288.248C46.0049 288.248 59.2738 275.288 59.2738 259.301C59.2738 243.314 46.0049 230.355 29.6369 230.355C13.2689 230.355 0 243.314 0 259.301C0 275.288 13.2689 288.248 29.6369 288.248Z" fill="#F2F2F2"/>
<path d="M28.8189 262.887C34.0438 262.887 38.2794 258.75 38.2794 253.647C38.2794 248.544 34.0438 244.407 28.8189 244.407C23.5941 244.407 19.3585 248.544 19.3585 253.647C19.3585 258.75 23.5941 262.887 28.8189 262.887Z" fill="#FFB6B6"/>
<path d="M51.8711 278.669C46.7366 284.375 39.5106 287.88 31.7529 288.428C23.9953 288.975 16.3283 286.521 10.4071 281.595L12.9491 274.667C13.5236 273.437 14.4301 272.382 15.5715 271.617C16.713 270.851 18.0462 270.404 19.4283 270.322L21.0455 270.225L24.9016 266.977C24.9016 266.977 35.2917 266.614 35.1376 266.441L41.4313 270.138L41.426 270.113L43.9001 270.261C45.2823 270.342 46.6157 270.79 47.7572 271.555C48.8987 272.321 49.8051 273.376 50.3793 274.606L51.8711 278.669Z" fill="#006233"/>
<path d="M38.7965 247.916C37.9971 245.122 36.1808 242.708 33.6885 241.129C31.7023 239.888 29.2239 239.254 26.9738 239.911C24.7237 240.567 22.8607 242.723 23.008 245.054C22.5912 244.947 22.152 244.956 21.7402 245.08C21.3284 245.204 20.9604 245.439 20.6779 245.757C20.1133 246.408 19.7208 247.184 19.5347 248.017C18.8127 250.63 18.8605 253.389 19.6727 255.976L19.628 256.347C20.1712 256.206 20.6741 255.946 21.0984 255.585C21.5227 255.225 21.8572 254.775 22.0763 254.27C22.5941 253.29 22.892 252.202 23.4532 251.246C23.6954 250.751 24.0607 250.324 24.5158 250.003C24.9708 249.681 25.5011 249.477 26.0581 249.407L25.9601 251.067C26.9166 250.586 27.873 250.104 28.8295 249.623L28.147 251.218L30.6529 250.195C30.5595 250.706 30.4662 251.217 30.3728 251.728C30.5918 251.284 30.9007 250.889 31.2808 250.565C31.6609 250.241 32.1043 249.996 32.5842 249.845C33.064 249.693 33.5704 249.638 34.0725 249.683C34.5747 249.728 35.0623 249.873 35.5059 250.107C36.5048 250.763 37.2248 251.753 37.5313 252.89C37.8347 254.025 37.9975 255.191 38.0164 256.363C39.3071 253.731 39.5841 250.732 38.7965 247.916Z" fill="#2F2E41"/>
<path d="M67.7124 78.4101H2.53975C2.20596 78.4106 1.87533 78.3469 1.56678 78.2225C1.25824 78.0981 0.977851 77.9155 0.741632 77.6851C0.505413 77.4548 0.318 77.1812 0.190138 76.88C0.0622753 76.5789 -0.00354004 76.2561 -0.00354004 75.93C-0.00354004 75.604 0.0622753 75.2812 0.190138 74.9801C0.318 74.6789 0.505413 74.4053 0.741632 74.175C0.977851 73.9446 1.25824 73.762 1.56678 73.6376C1.87533 73.5132 2.20596 73.4495 2.53975 73.45H67.7124C70.9869 73.4054 71.0197 78.4551 67.7124 78.4101Z" fill="#3F3D56"/>
<path d="M155.507 91.3832H2.53981C1.86637 91.3832 1.22051 91.1219 0.744316 90.6568C0.268125 90.1917 0.000610352 89.5609 0.000610352 88.9031C0.000610352 88.2454 0.268125 87.6146 0.744316 87.1495C1.22051 86.6844 1.86637 86.4231 2.53981 86.4231H155.507C158.782 86.3784 158.815 91.4282 155.507 91.3832Z" fill="#3F3D56"/>
<path d="M208.796 98.3588C217.811 98.3588 225.118 91.2213 225.118 82.4166C225.118 73.612 217.811 66.4744 208.796 66.4744C199.781 66.4744 192.474 73.612 192.474 82.4166C192.474 91.2213 199.781 98.3588 208.796 98.3588Z" fill="#006233"/>
<path d="M206.569 90.7138C206.287 90.7138 206.009 90.6497 205.757 90.5265C205.505 90.4034 205.286 90.2246 205.117 90.0043L200.664 84.2051C200.375 83.8289 200.251 83.3559 200.319 82.8903C200.387 82.4248 200.642 82.0047 201.027 81.7225C201.412 81.4403 201.897 81.3192 202.373 81.3857C202.85 81.4522 203.28 81.701 203.569 82.0772L206.482 85.8709L213.965 74.9088C214.097 74.7148 214.267 74.5482 214.465 74.4185C214.663 74.2888 214.886 74.1984 215.119 74.1527C215.353 74.1069 215.594 74.1066 215.828 74.1518C216.062 74.1969 216.285 74.2867 216.483 74.4159C216.682 74.5452 216.852 74.7113 216.985 74.9049C217.118 75.0985 217.21 75.3158 217.257 75.5443C217.303 75.7727 217.303 76.008 217.257 76.2365C217.211 76.465 217.119 76.6824 216.986 76.8762L208.08 89.924C207.919 90.16 207.702 90.3548 207.448 90.4921C207.194 90.6294 206.91 90.7052 206.62 90.7132C206.603 90.7135 206.586 90.7138 206.569 90.7138Z" fill="#DFF8D5" fill-opacity="0.25"/>
<path d="M67.7124 193.587H2.53981C1.86637 193.587 1.22051 193.326 0.744316 192.861C0.268125 192.396 0.000610352 191.765 0.000610352 191.107C0.000610352 190.45 0.268125 189.819 0.744316 189.354C1.22051 188.889 1.86637 188.627 2.53981 188.627H67.7124C70.987 188.583 71.0198 193.632 67.7124 193.587Z" fill="#3F3D56"/>
<path d="M155.507 206.56H2.53975C2.20596 206.561 1.87533 206.497 1.56678 206.373C1.25824 206.248 0.977851 206.066 0.741632 205.835C0.505413 205.605 0.318 205.332 0.190138 205.03C0.0622753 204.729 -0.00354004 204.406 -0.00354004 204.08C-0.00354004 203.754 0.0622753 203.432 0.190138 203.13C0.318 202.829 0.505413 202.556 0.741632 202.325C0.977851 202.095 1.25824 201.912 1.56678 201.788C1.87533 201.664 2.20596 201.6 2.53975 201.6H155.507C158.782 201.556 158.814 206.605 155.507 206.56Z" fill="#3F3D56"/>
<path d="M208.796 213.536C217.811 213.536 225.118 206.399 225.118 197.594C225.118 188.789 217.811 181.652 208.796 181.652C199.781 181.652 192.474 188.789 192.474 197.594C192.474 206.399 199.781 213.536 208.796 213.536Z" fill="#006233"/>
<path d="M206.569 205.891C206.287 205.891 206.009 205.827 205.757 205.704C205.505 205.581 205.286 205.402 205.117 205.182L200.664 199.382C200.521 199.196 200.417 198.984 200.358 198.759C200.298 198.533 200.285 198.298 200.319 198.068C200.353 197.837 200.433 197.615 200.554 197.415C200.676 197.215 200.836 197.04 201.027 196.9C201.218 196.76 201.435 196.658 201.666 196.601C201.897 196.543 202.137 196.53 202.373 196.563C202.609 196.596 202.836 196.674 203.041 196.793C203.247 196.911 203.426 197.068 203.569 197.255L206.482 201.048L213.965 190.086C214.232 189.695 214.647 189.424 215.119 189.332C215.591 189.24 216.081 189.334 216.482 189.595C216.882 189.856 217.161 190.261 217.255 190.722C217.35 191.183 217.253 191.662 216.986 192.053L208.08 205.101C207.919 205.337 207.702 205.532 207.448 205.669C207.194 205.807 206.91 205.883 206.62 205.891C206.603 205.891 206.586 205.891 206.569 205.891Z" fill="#DFF8D5" fill-opacity="0.25"/>
<path d="M67.7124 308.765H2.53981C1.86637 308.765 1.22051 308.503 0.744316 308.038C0.268126 307.573 0.000610352 306.942 0.000610352 306.285C0.000610352 305.627 0.268126 304.996 0.744316 304.531C1.22051 304.066 1.86637 303.805 2.53981 303.805H67.7124C70.987 303.76 71.0198 308.81 67.7124 308.765Z" fill="#3F3D56"/>
<path d="M155.507 321.738H2.53981C1.86637 321.738 1.22051 321.476 0.744316 321.011C0.268125 320.546 0.000610352 319.915 0.000610352 319.258C0.000610352 318.6 0.268125 317.969 0.744316 317.504C1.22051 317.039 1.86637 316.778 2.53981 316.778H155.507C158.782 316.733 158.815 321.783 155.507 321.738Z" fill="#3F3D56"/>
<path d="M208.796 328.713C217.811 328.713 225.118 321.576 225.118 312.771C225.118 303.967 217.811 296.829 208.796 296.829C199.781 296.829 192.474 303.967 192.474 312.771C192.474 321.576 199.781 328.713 208.796 328.713Z" fill="#006233"/>
<path d="M206.569 321.068C206.287 321.068 206.009 321.004 205.757 320.881C205.505 320.758 205.286 320.579 205.117 320.359L200.664 314.56C200.521 314.373 200.417 314.161 200.358 313.936C200.298 313.71 200.285 313.475 200.319 313.245C200.353 313.014 200.433 312.793 200.554 312.592C200.676 312.392 200.836 312.217 201.027 312.077C201.218 311.937 201.435 311.836 201.666 311.778C201.897 311.72 202.137 311.707 202.373 311.74C202.609 311.773 202.836 311.851 203.041 311.97C203.247 312.089 203.426 312.246 203.569 312.432L206.482 316.225L213.965 305.263C214.097 305.069 214.267 304.903 214.465 304.773C214.663 304.643 214.886 304.553 215.119 304.507C215.353 304.461 215.594 304.461 215.828 304.506C216.062 304.552 216.285 304.641 216.483 304.771C216.682 304.9 216.852 305.066 216.985 305.26C217.118 305.453 217.21 305.67 217.257 305.899C217.303 306.127 217.303 306.363 217.257 306.591C217.211 306.82 217.119 307.037 216.986 307.231L208.08 320.279C207.919 320.515 207.702 320.709 207.448 320.847C207.194 320.984 206.91 321.06 206.62 321.068C206.603 321.068 206.586 321.068 206.569 321.068Z" fill="#DFF8D5" fill-opacity="0.25"/>
<path d="M275.361 258.019H318.131L307.603 227.814L278.651 228.456L275.361 258.019Z" fill="#9E616A"/>
<path d="M309.877 432.089H301.435L297.419 400.288L309.878 400.289L309.877 432.089Z" fill="#9E616A"/>
<path d="M314.418 447.744H308.428L307.359 442.221L304.621 447.744H288.734C287.973 447.744 287.231 447.507 286.618 447.066C286.004 446.625 285.551 446.004 285.325 445.294C285.098 444.584 285.11 443.822 285.358 443.119C285.606 442.416 286.078 441.809 286.705 441.386L299.391 432.829V427.245L312.735 428.023L314.418 447.744Z" fill="#2F2E41"/>
<path d="M295.401 432.089H286.959L282.943 400.288L295.402 400.289L295.401 432.089Z" fill="#9E616A"/>
<path d="M299.942 447.744H293.952L292.883 442.221L290.145 447.744H274.258C273.497 447.744 272.755 447.507 272.142 447.066C271.528 446.625 271.075 446.004 270.849 445.294C270.622 444.584 270.634 443.822 270.882 443.119C271.13 442.416 271.602 441.809 272.229 441.386L284.915 432.829V427.245L298.259 428.023L299.942 447.744Z" fill="#2F2E41"/>
<path d="M275.488 252.235L318.131 251.593C318.131 251.593 332.461 281.089 326.683 299.312L309.946 352.823L296.188 421.51L283.534 417.759L279.988 412.552L282.599 403.264L281.521 398.064L277.335 350.564V349.922L275.361 329.999C266.476 300.343 268.84 282.445 275.488 252.235L275.488 252.235Z" fill="#2F2E41"/>
<path d="M305.462 349.633L313.3 405.101L311.551 407.762L313.3 412.138L311.147 422.507L298.666 424.873L286.836 375.289L305.462 349.633Z" fill="#2F2E41"/>
<path d="M276.636 243.621C276.626 243.621 276.616 243.622 276.605 243.622C276.253 243.623 275.909 243.514 275.624 243.311C275.34 243.107 275.13 242.82 275.025 242.491C272.959 236.116 270.73 228.289 271.839 227.206C272.321 226.802 272.885 226.501 273.494 226.323C274.822 225.831 275.871 225.443 275.049 223.036C274.462 221.315 276.3 219.406 275.374 218.239C274.193 216.75 274.471 215.323 275.374 214.383C276.222 213.499 273.78 209.4 275.142 205.197C275.186 205.063 275.199 204.922 275.181 204.783C275.163 204.644 275.114 204.51 275.038 204.391C273.328 201.713 268.342 195.684 274.419 189.796C280.002 184.386 282.39 173.812 283.981 173.038C284.209 172.927 284.384 172.735 284.47 172.501L286.577 166.861C286.694 166.549 286.907 166.28 287.185 166.089C287.464 165.899 287.796 165.796 288.136 165.796H304.472C304.721 165.795 304.967 165.849 305.191 165.955C305.416 166.06 305.613 166.214 305.768 166.404L313.46 175.795C313.555 175.911 313.634 176.04 313.693 176.178C314.711 178.553 323.512 199.622 319.079 207.663L318.265 209.136C314.355 216.21 312.736 219.138 314.416 220.779C315.964 222.292 315.304 223.412 314.91 224.081C314.787 224.289 314.649 224.524 314.673 224.628C315.127 226.626 313.976 226.915 313.424 227.054C313.386 227.064 313.343 227.075 313.303 227.086C313.44 227.265 313.592 227.432 313.758 227.586C313.955 227.745 314.116 227.942 314.23 228.166C314.343 228.389 314.407 228.634 314.417 228.883C314.365 229.161 314.254 229.425 314.091 229.658C313.928 229.892 313.716 230.088 313.469 230.236C313.215 230.443 312.927 230.678 312.922 230.836C312.918 230.928 313.029 231.046 313.095 231.108C313.38 231.376 313.771 231.684 314.183 232.01C315.379 232.956 316.734 234.027 316.789 235.054C316.799 235.233 316.768 235.412 316.699 235.578C316.63 235.744 316.524 235.893 316.39 236.015L313.315 239.017C313.094 239.397 314.109 241.749 314.567 242.278L314.779 242.522L314.625 242.65C314.759 242.865 314.839 243.108 314.856 243.359C314.874 243.61 314.829 243.861 314.726 244.092C314.601 244.353 314.4 244.573 314.149 244.724C313.898 244.875 313.607 244.952 313.311 244.944L276.636 243.621Z" fill="#3F3D56"/>
<path d="M223.065 199.883C224.322 201.147 226.037 201.877 227.841 201.917C229.644 201.956 231.391 201.302 232.705 200.095C232.995 199.828 233.26 199.536 233.497 199.223L256.669 206.082L253.114 194.418L231.654 189.692C230.119 188.751 228.266 188.437 226.496 188.819C224.726 189.201 223.181 190.249 222.195 191.734C221.372 192.988 221.009 194.477 221.168 195.958C221.326 197.439 221.995 198.823 223.065 199.883L223.065 199.883Z" fill="#9E616A"/>
<path d="M237.613 202.316L241.03 191.081L252.813 191.017L255.24 194.164L259.155 192.794L271.595 195.887L284.738 175.146C285.399 174.104 286.286 173.217 287.338 172.548C288.39 171.879 289.579 171.445 290.822 171.277C292.065 171.108 293.331 171.21 294.529 171.574C295.727 171.938 296.829 172.556 297.754 173.383C299.191 174.656 300.138 176.371 300.438 178.243C300.738 180.115 300.371 182.03 299.401 183.671L280.951 215.167L237.613 202.316Z" fill="#3F3D56"/>
<path d="M254.382 253.558C256.185 253.617 257.94 252.983 259.268 251.79C260.596 250.598 261.391 248.944 261.482 247.184C261.501 246.795 261.485 246.405 261.434 246.019L283.005 235.278L272.165 229.277L253.342 240.397C251.567 240.757 250.009 241.786 249.004 243.259C247.999 244.733 247.629 246.534 247.972 248.272C248.268 249.733 249.064 251.052 250.229 252.012C251.394 252.972 252.858 253.517 254.382 253.558H254.382Z" fill="#9E616A"/>
<path d="M266.596 245.464L261.086 235.051L269.535 227.029L273.517 227.654L275.367 224.016L286.53 217.825L281.286 193.977C281.023 192.778 281.033 191.538 281.317 190.344C281.6 189.15 282.15 188.032 282.926 187.069C283.703 186.106 284.687 185.323 285.809 184.774C286.931 184.225 288.164 183.925 289.418 183.895C291.357 183.84 293.257 184.435 294.801 185.581C296.345 186.728 297.441 188.357 297.905 190.196L306.955 225.39L266.596 245.464Z" fill="#3F3D56"/>
<path d="M297.118 162.808C305.781 162.808 312.804 155.949 312.804 147.488C312.804 139.027 305.781 132.168 297.118 132.168C288.456 132.168 281.433 139.027 281.433 147.488C281.433 155.949 288.456 162.808 297.118 162.808Z" fill="#9E616A"/>
<path d="M299.485 128.843L301.388 129.338L302.035 129.506L309.277 131.388C315.696 133.057 319.341 140.128 317.419 147.181C320.968 153.191 317.893 158.764 312.304 164.171C305.138 163.211 297.871 163.219 290.708 164.197L290.833 160.147L287.662 164.699C285.852 165.041 284.036 165.457 282.215 165.948C286.355 157.984 289.407 149.76 289.927 142.889L286.611 142.027L287.577 138.482L285.485 141.734L279.473 140.171C280.025 138.144 280.981 136.243 282.286 134.576C283.59 132.91 285.219 131.511 287.077 130.459C288.935 129.407 290.988 128.723 293.117 128.445C295.246 128.168 297.41 128.303 299.485 128.843Z" fill="#2F2E41"/>
<path d="M312.853 138.312C316.933 138.312 320.24 135.082 320.24 131.097C320.24 127.113 316.933 123.883 312.853 123.883C308.774 123.883 305.467 127.113 305.467 131.097C305.467 135.082 308.774 138.312 312.853 138.312Z" fill="#2F2E41"/>
<path d="M389.11 446.307C394.354 434.309 398.052 421.25 396.302 408.325C395.702 403.943 394.396 399.681 392.433 395.697C390.851 392.449 388.809 389.435 386.366 386.744C385.521 385.795 384.362 385.166 383.091 384.966C381.82 384.766 380.517 385.009 379.411 385.652C379.24 385.748 379.069 385.851 378.911 385.96C378.054 386.55 377.378 387.356 376.956 388.293C376.875 388.472 376.807 388.657 376.752 388.846C376.511 389.635 376.446 390.466 376.562 391.282C377.484 397.933 377.284 404.687 375.969 411.275C375.634 412.953 375.224 414.615 374.739 416.262C373.65 414.935 372.493 413.663 371.271 412.451C368.104 409.316 364.451 406.688 360.447 404.662H360.441C360.421 404.649 360.408 404.643 360.388 404.63C355.532 402.214 349.057 403.216 345.274 404.861C345.024 404.964 344.787 405.08 344.556 405.189C342.582 406.179 341.602 407.316 342.444 408.062C342.635 408.223 342.826 408.39 343.004 408.557C348.739 413.736 353.439 419.912 356.861 426.77V426.777C358.221 429.507 359.367 432.334 360.289 435.234C361.559 439.238 362.612 443.679 365.093 446.944C365.346 447.287 365.621 447.616 365.915 447.927L388.077 447.753C388.129 447.728 388.175 447.708 388.228 447.683L389.11 447.715C389.077 447.561 389.037 447.406 388.998 447.252V447.239C388.978 447.156 388.952 447.066 388.932 446.989C388.912 446.924 388.899 446.867 388.886 446.815C388.925 446.719 388.965 446.629 389.011 446.532C389.044 446.455 389.077 446.385 389.11 446.307Z" fill="#F0F0F0"/>
<path d="M388.998 447.239C388.991 447.287 388.972 447.333 388.942 447.372C388.912 447.41 388.872 447.441 388.826 447.46C388.781 447.48 388.731 447.487 388.681 447.482C388.632 447.477 388.584 447.46 388.544 447.432C387.633 446.787 386.634 446.27 385.576 445.896C385.57 445.89 385.57 445.896 385.57 445.896C384.234 445.427 382.861 445.07 381.464 444.829C381.451 444.829 381.444 444.823 381.431 444.823C380.865 444.714 380.299 444.617 379.733 444.514C376.983 444.019 374.186 443.422 371.804 441.892C370.835 441.306 370.004 440.526 369.365 439.603C368.727 438.68 368.295 437.636 368.1 436.539C367.751 434.386 368.192 432.22 368.376 430.073C368.389 429.919 368.402 429.759 368.409 429.604C368.422 429.405 368.429 429.212 368.429 429.019C368.496 427.071 368.095 425.134 367.257 423.364C366.181 421.245 364.769 419.306 363.073 417.618C362.197 416.699 361.285 415.815 360.335 414.964H360.329C360.289 414.926 360.256 414.893 360.217 414.861C360.217 414.855 360.21 414.848 360.204 414.842C356.143 411.239 351.538 408.269 346.55 406.037C346.372 405.96 346.188 405.877 346.004 405.8C345.524 405.588 345.043 405.388 344.556 405.189C344.787 405.08 345.024 404.964 345.274 404.861C350.837 407.16 355.971 410.343 360.467 414.283C360.618 414.411 360.77 414.546 360.914 414.681C362.053 415.71 363.136 416.787 364.165 417.914C365.81 419.645 367.143 421.635 368.106 423.801C368.813 425.554 369.125 427.434 369.021 429.315C369.008 429.675 368.981 430.035 368.949 430.401C368.745 432.567 368.291 434.804 368.797 436.969C369.376 439.437 371.337 441.16 373.614 442.214C375.121 442.87 376.702 443.349 378.325 443.64C381.681 444.328 385.149 444.662 388.083 446.423H388.09C388.136 446.455 388.182 446.481 388.221 446.507C388.228 446.507 388.228 446.507 388.228 446.513C388.44 446.636 388.644 446.771 388.84 446.918C388.853 446.924 388.866 446.937 388.879 446.944C388.898 446.957 388.916 446.972 388.932 446.989C388.962 447.022 388.984 447.063 388.996 447.106C389.007 447.15 389.008 447.195 388.998 447.239Z" fill="#DFF8D5" fill-opacity="0.25"/>
<path d="M360.741 414.902C361.937 413.453 362.567 411.637 362.518 409.777C362.469 407.917 361.745 406.135 360.475 404.748C360.217 404.468 359.76 404.847 360.018 405.127C361.203 406.416 361.878 408.076 361.92 409.809C361.961 411.541 361.368 413.23 360.246 414.572C360.003 414.864 360.499 415.192 360.741 414.902Z" fill="#DFF8D5" fill-opacity="0.25"/>
<path d="M368.619 429C364.751 429.439 360.856 428.438 357.71 426.197C357.398 425.974 357.061 426.458 357.373 426.68C360.651 429.007 364.707 430.04 368.731 429.575C369.115 429.53 369.001 428.955 368.619 429Z" fill="#DFF8D5" fill-opacity="0.25"/>
<path d="M346.59 405.967C346.576 405.992 346.563 406.012 346.55 406.037C346.188 406.688 345.681 407.252 345.068 407.688C344.454 408.123 343.749 408.42 343.003 408.557C342.826 408.39 342.635 408.222 342.444 408.062C342.474 408.043 342.508 408.032 342.543 408.03C343.26 407.953 343.947 407.71 344.549 407.322C345.151 406.935 345.649 406.413 346.004 405.8C346.037 405.748 346.07 405.69 346.096 405.639C346.118 405.607 346.146 405.58 346.179 405.559C346.212 405.538 346.248 405.523 346.287 405.516C346.325 405.509 346.365 405.509 346.404 405.517C346.442 405.525 346.478 405.54 346.511 405.562C346.574 405.607 346.617 405.674 346.632 405.749C346.647 405.824 346.631 405.902 346.59 405.967Z" fill="#DFF8D5" fill-opacity="0.25"/>
<path d="M389.11 446.307C389.112 446.35 389.105 446.392 389.088 446.431C389.07 446.47 389.044 446.505 389.011 446.532C388.959 446.57 388.898 446.595 388.833 446.603C388.768 446.616 388.7 446.604 388.643 446.57C388.587 446.535 388.547 446.48 388.531 446.417C387.623 443.435 385.399 441.147 383.293 438.904C381.398 436.892 379.536 434.771 378.582 432.156C378.168 431.117 377.985 430.004 378.044 428.89C378.103 427.777 378.403 426.689 378.924 425.697C379.252 425.104 379.633 424.54 380.062 424.013C381.003 422.843 382.122 421.802 383.128 420.697C383.234 420.581 383.339 420.459 383.438 420.343C383.576 420.195 383.701 420.041 383.819 419.887C385.074 418.371 385.947 416.588 386.366 414.681C386.815 412.357 386.884 409.977 386.57 407.631C386.438 406.384 386.256 405.146 386.024 403.917C386.011 403.859 386.004 403.807 385.991 403.756C384.975 398.482 383.128 393.394 380.516 388.672C380.418 388.499 380.325 388.325 380.227 388.158C379.806 387.413 379.371 386.68 378.911 385.96C379.069 385.851 379.24 385.748 379.411 385.652C380.92 388.038 382.233 390.537 383.339 393.126C384.769 396.447 385.843 399.904 386.544 403.441C386.59 403.634 386.623 403.833 386.655 404.026C386.932 405.51 387.136 407.014 387.261 408.512C387.508 410.861 387.343 413.234 386.774 415.53C386.258 417.351 385.344 419.041 384.096 420.485C383.872 420.761 383.635 421.031 383.385 421.294C382.385 422.361 381.28 423.396 380.378 424.559C379.918 425.144 379.527 425.778 379.213 426.449C378.154 428.762 378.654 431.294 379.825 433.467C381.944 437.419 385.984 440.112 388.136 443.987C388.533 444.701 388.855 445.453 389.097 446.23C389.104 446.255 389.109 446.281 389.11 446.307Z" fill="#DFF8D5" fill-opacity="0.25"/>
<path d="M386.383 404.094C388.231 403.64 389.853 402.56 390.961 401.047C392.068 399.533 392.589 397.684 392.429 395.83C392.396 395.455 391.798 395.488 391.831 395.864C391.983 397.59 391.498 399.312 390.463 400.72C389.429 402.127 387.914 403.127 386.191 403.539C385.816 403.629 386.011 404.183 386.383 404.094Z" fill="#DFF8D5" fill-opacity="0.25"/>
<path d="M383.983 419.983C380.624 418.059 378.13 414.969 377 411.329C376.889 410.969 376.321 411.157 376.433 411.517C377.616 415.302 380.218 418.513 383.718 420.507C384.051 420.697 384.315 420.171 383.983 419.983Z" fill="#DFF8D5" fill-opacity="0.25"/>
<path d="M380.589 388.64C380.562 388.653 380.543 388.66 380.516 388.672C379.331 389.2 377.983 389.263 376.752 388.846C376.807 388.657 376.875 388.472 376.956 388.293C378.025 388.651 379.193 388.603 380.227 388.158C380.286 388.139 380.339 388.113 380.398 388.088C380.473 388.062 380.555 388.067 380.627 388.101C380.698 388.134 380.753 388.194 380.779 388.267C380.801 388.342 380.793 388.421 380.758 388.49C380.723 388.559 380.662 388.613 380.589 388.64Z" fill="#DFF8D5" fill-opacity="0.25"/>
<path d="M409.217 449H180.24C180.137 449 180.035 448.981 179.939 448.942C179.844 448.904 179.757 448.848 179.684 448.777C179.611 448.705 179.553 448.621 179.514 448.528C179.474 448.435 179.454 448.335 179.454 448.235C179.454 448.134 179.474 448.034 179.514 447.941C179.553 447.848 179.611 447.764 179.684 447.693C179.757 447.622 179.844 447.565 179.939 447.527C180.035 447.489 180.137 447.469 180.24 447.469H409.217C409.32 447.469 409.422 447.489 409.517 447.527C409.612 447.565 409.699 447.622 409.772 447.693C409.845 447.764 409.903 447.848 409.942 447.941C409.982 448.034 410.002 448.134 410.002 448.235C410.002 448.335 409.982 448.435 409.942 448.528C409.903 448.621 409.845 448.705 409.772 448.777C409.699 448.848 409.612 448.904 409.517 448.942C409.422 448.981 409.32 449 409.217 449Z" fill="#CCCCCC"/>
</g>
<defs>
<clipPath id="clip0_4_160">
<rect width="410" height="449" fill="white"/>
</clipPath>
</defs>
</svg>
